<svg xmlns="http://www.w3.org/2000/svg" viewBox="55 65 520 220">
  <rect x="55" y="65" width="520" height="220" fill="#fff"/>
  <g fill="#0a0a0a">
    <path d="M521.3,272.8l-.6-141.79-71.78,111.81c-4.58.98-12.71.87-17.55-.39l-70.51-111.22-.47,141.68-29.62-.53-.09-192.65,31.07-.16,78.85,124.07,78.9-123.22,31.84-.57.03,192.4-30.08.57Z"/>
    <path d="M237.35,226.91l-108.82-.28-21.45,45.88-33.69.08,94.24-192.5,31.55-.45,91.46,192.02-32.91,1.64-20.39-46.38ZM225.3,201.5l-42.06-89.94-42.89,90.1,84.95-.17Z"/>
  </g>
</svg>